<svg id="Capa_1" enable-background="new 0 0 512.951 512.951" height="512" viewBox="0 0 512.951 512.951" width="512" xmlns="http://www.w3.org/2000/svg"><g><path d="m405.396 503.1-26.948-86.052c-.156-.537-.181-1.11-.072-1.66l6.27-31.608c.16-.806.307-1.614.454-2.423l.252-1.374c.765-4.071-1.916-7.991-5.987-8.755-4.072-.762-7.99 1.917-8.755 5.987l-.269 1.466c-.132.728-.264 1.455-.407 2.181l-6.27 31.608c-.575 2.897-.443 5.927.381 8.763l26.948 86.052c.953 3.279 3.948 5.41 7.199 5.41.693 0 1.397-.097 2.096-.3 3.976-1.156 6.264-5.317 5.108-9.295z"/><path d="m376.925 246.72v62.947c0 12.015-.606 24.203-1.803 36.227-.41 4.122 2.599 7.796 6.721 8.206 4.124.415 7.796-2.599 8.206-6.72 1.245-12.516 1.876-25.204 1.876-37.712v-62.948c0-15.12-12.301-27.421-27.421-27.421-14.187 0-26.192 11.077-27.333 25.217l-4.056 50.294c-28.965 22.244-49.397 54.038-57.582 89.651l-5.409 23.534c-.928 4.037 1.593 8.062 5.63 8.989.565.13 1.13.192 1.687.192 3.417 0 6.505-2.35 7.303-5.822l5.409-23.534c7.482-32.557 26.276-61.585 52.917-81.738l1.776-1.343c1.706-1.29 2.779-3.247 2.951-5.379l4.326-53.639c.517-6.406 5.955-11.423 12.381-11.423 6.849.001 12.421 5.573 12.421 12.422z"/><path d="m268.717 468.67c-.769-3.104-2.86-5.683-5.74-7.072l-3.535-1.706c-20.042-9.676-35.431-26.462-43.332-47.268l-2.827-7.443h39.428c4.142 0 7.5-3.358 7.5-7.5s-3.358-7.5-7.5-7.5h-104.169c-14.495 0-26.287-11.792-26.287-26.287v-240.071c0-4.142-3.358-7.5-7.5-7.5s-7.5 3.358-7.5 7.5v240.071c0 22.766 18.521 41.287 41.287 41.287h48.696l4.849 12.768c9.269 24.407 27.322 44.1 50.833 55.451l1.718.829 8.154 33.018c.844 3.417 3.906 5.704 7.275 5.704.595 0 1.2-.072 1.804-.221 4.021-.993 6.476-5.058 5.483-9.08z"/><path d="m114.755 99.36c4.142 0 7.5-3.358 7.5-7.5v-50.573c0-14.495 11.792-26.287 26.287-26.287h22.096v5.351c0 16.495 13.419 29.915 29.915 29.915h57.817c16.495 0 29.915-13.419 29.915-29.915v-5.351h22.096c14.495 0 26.287 11.792 26.287 26.287v161.303c0 4.142 3.358 7.5 7.5 7.5s7.5-3.358 7.5-7.5v-161.303c-.001-22.766-18.523-41.287-41.288-41.287h-161.838c-22.766 0-41.287 18.521-41.287 41.287v50.573c0 4.142 3.358 7.5 7.5 7.5zm158.529-79.009c0 8.224-6.69 14.915-14.915 14.915h-57.817c-8.224 0-14.915-6.69-14.915-14.915v-5.351h87.646v5.351z"/><path d="m267.014 296.48c-4.142 0-7.5 3.358-7.5 7.5s3.358 7.5 7.5 7.5h19.938c7.823 0 14.188-6.365 14.188-14.188v-29.334c0-7.823-6.365-14.188-14.188-14.188h-114.982c-7.823 0-14.188 6.365-14.188 14.188v29.334c0 7.823 6.365 14.188 14.188 14.188h63.083c4.142 0 7.5-3.358 7.5-7.5s-3.358-7.5-7.5-7.5h-62.271v-27.71h113.358v27.71z"/><path d="m303.41 99.852c-2.882-2.974-7.63-3.051-10.605-.168l-29.478 28.556c-2.543-1.475-5.486-2.333-8.632-2.333h-50.47c-9.527 0-17.278 7.751-17.278 17.278v47.344c0 9.527 7.751 17.277 17.278 17.277h50.47c9.527 0 17.278-7.75 17.278-17.277v-47.344c0-.773-.069-1.528-.167-2.274l31.435-30.453c2.976-2.883 3.052-7.631.169-10.606zm-46.436 90.675c0 1.256-1.022 2.277-2.278 2.277h-50.47c-1.256 0-2.278-1.021-2.278-2.277v-47.344c0-1.256 1.022-2.278 2.278-2.278h46.027l-23.177 22.452-4.585-3.994c-3.124-2.72-7.861-2.394-10.582.73s-2.394 7.861.73 10.582l9.781 8.519c1.416 1.232 3.171 1.844 4.925 1.844 1.886 0 3.769-.708 5.219-2.113l24.41-23.647z"/></g></svg>